<?xml version="1.0" encoding="utf-8"?>
<!-- Generator: Adobe Illustrator 27.1.0, SVG Export Plug-In . SVG Version: 6.00 Build 0)  -->
<svg version="1.1" id="Layer_1" xmlns="http://www.w3.org/2000/svg" xmlns:xlink="http://www.w3.org/1999/xlink" x="0px" y="0px"
	 viewBox="0 0 100 125" style="enable-background:new 0 0 100 125;" xml:space="preserve">
<style type="text/css">
	.st0{fill:none;stroke:#94A3AD;stroke-miterlimit:10;}
	.st1{fill:none;stroke:#94A3AD;stroke-width:0.5;stroke-miterlimit:10;}
</style>
<g>
	<g>
		<path class="st0" d="M78.4,38.3l-0.1-29C78.1,5,74.4,1.7,70.1,2H11.6C6.9,2,3.1,5.2,3.1,9.3l0.3,107.1c0,4.1,3.8,7.4,8.5,7.4h58.6
			"/>
		<circle class="st0" cx="42.5" cy="115.7" r="4.5"/>
		<polyline class="st0" points="54,108.5 6.3,108.5 6.3,13.5 75.7,13.5 75.7,38.3 		"/>
		<circle class="st1" cx="31.7" cy="7.5" r="0.7"/>
		<path class="st1" d="M38.9,6.9h6.9c0.3,0,0.5,0.2,0.5,0.5v0c0,0.3-0.2,0.5-0.5,0.5h-6.9c-0.3,0-0.5-0.2-0.5-0.5v0
			C38.3,7.2,38.6,6.9,38.9,6.9z"/>
		<path class="st1" d="M60.9,1.6L60.9,1.6c0-0.2,0.2-0.4,0.4-0.4h8.2c0.2,0,0.4,0.2,0.4,0.4l0,0C70,1.8,69.8,2,69.5,2h-8.2
			C61.1,2,60.9,1.8,60.9,1.6z"/>
	</g>
	<g>
		<path class="st0" d="M54,118.7c-0.1,2.8,2,5.1,4.8,5.2c0,0,0,0,0,0h33.4c2.7-0.1,4.8-2.4,4.7-5.2l-0.2-75.2
			c0.1-2.7-1.9-5.1-4.7-5.2c0,0,0,0,0,0H58.7c-2.8,0.1-4.9,2.4-4.9,5.1c0,0,0,0,0,0l0.2,65L54,118.7z"/>
		<circle class="st0" cx="75.1" cy="118.5" r="3.2"/>
		<rect x="56.1" y="45" class="st0" width="38.6" height="68.2"/>
		<circle class="st1" cx="70.8" cy="41.7" r="0.5"/>
		<path class="st1" d="M72.8,41.3h4.8c0.2,0,0.4,0.2,0.4,0.4v0c0,0.2-0.2,0.4-0.4,0.4h-4.8c-0.2,0-0.4-0.2-0.4-0.4v0
			C72.4,41.5,72.5,41.3,72.8,41.3z"/>
	</g>
</g>
</svg>
