<?xml version="1.0" encoding="utf-8"?>
<!-- Generator: Adobe Illustrator 27.1.0, SVG Export Plug-In . SVG Version: 6.00 Build 0)  -->
<svg version="1.1" id="Layer_1" xmlns="http://www.w3.org/2000/svg" xmlns:xlink="http://www.w3.org/1999/xlink" x="0px" y="0px"
	 viewBox="0 0 512 512" style="enable-background:new 0 0 512 512;" xml:space="preserve">
<path d="M18.9,501.2c0.5-24.9,1-49.9,3.4-74.7c2.4-24.4,6.8-49.2,19.1-70.3c12.4-21.3,32.3-37.6,53.9-49.5
	c21.6-11.9,45.2-19.8,68.6-27.6c6.3-2.1,12.9-4.2,19.5-3.4c7,0.9,13.2,5.1,19.3,8.6c32.6,18.4,75,18,107.4-0.9
	c6-3.5,11.9-7.7,18.9-8.2c4.9-0.4,9.7,1.1,14.4,2.7c44.4,14.7,93.5,31.4,122.5,70.6c13.8,18.6,20.7,41.6,23.6,64.3
	c3.2,25.2,2.9,51.1,3.5,76.5c0.1,2.9,0.1,5.7,0.2,8.6c0.1,4.5-0.2,9.7-3.8,12.4c-2.4,1.7-5.6,1.8-8.5,1.8c-150.9,0-301.9,0-452.8,0
	c-2.2,0-4.5,0-6.2-1.3c-2.7-1.9-2.9-5.8-2.8-9.2C18.9,501.4,18.9,501.3,18.9,501.2z M209.6,7.4c-53.3,19.1-91.2,74.8-89.4,131.4
	c1.8,56.6,43.1,109.8,97.5,125.6c54.4,15.8,117.7-6.9,149.7-53.7c4.3-6.3,8-13,11.1-19.9c17.2-38.8,15.9-86.4-5.4-123.4
	c-7.6-13.1-17.6-24.7-29.2-34.4c-21.1-17.6-47.6-28.8-74.9-32C249.1-1.4,228.7,0.5,209.6,7.4z"/>
</svg>
